<svg width="84" height="84" viewBox="0 0 84 84" fill="none" xmlns="http://www.w3.org/2000/svg">
<path d="M24.2222 84H59.7778V70H74V49H66.8889V63H59.7778V49H66.8889V35H74V21H59.7778V42H24.2222V21H10V35H17.1111V49H24.2222V63H17.1111V49H10V70H24.2222V84ZM31.3333 77V70H38.4444V77H31.3333ZM45.5556 77V70H52.6667V77H45.5556ZM31.3333 63V49H52.6667V63H31.3333ZM31.3333 35H38.4444V28H31.3333V35ZM45.5556 35H52.6667V28H45.5556V35ZM24.2222 21H59.7778V14H45.5556V7H38.4444V14H24.2222V21Z" fill="black"/>
</svg>
